<?xml version="1.0" encoding="UTF-8" standalone="no"?>
<!DOCTYPE svg PUBLIC "-//W3C//DTD SVG 1.1//EN" "http://www.w3.org/Graphics/SVG/1.1/DTD/svg11.dtd">
<svg xmlns="http://www.w3.org/2000/svg" version="1.1" viewBox="0.00 0.00 1801.00 873.00">
<path fill="#0868ff" d="
  M 468.23 305.60
  A 0.55 0.53 -34.3 0 1 468.11 306.19
  L 425.30 347.68
  A 0.92 0.92 0.0 0 1 423.96 347.62
  C 408.11 329.37 386.69 318.07 362.61 315.77
  Q 344.51 314.03 325.25 320.43
  C 295.87 330.19 272.48 353.83 262.19 383.20
  C 246.11 429.10 266.51 477.82 307.96 501.58
  C 342.30 521.27 384.72 519.07 417.68 497.59
  A 0.63 0.63 0.0 0 1 418.66 498.12
  L 418.66 560.12
  A 2.23 2.23 0.0 0 1 417.23 562.20
  C 400.20 568.71 382.27 573.02 363.51 573.74
  Q 311.54 575.73 269.44 548.55
  Q 238.53 528.59 218.10 495.41
  Q 197.68 462.27 195.46 422.73
  C 193.34 384.98 206.70 347.32 229.88 317.66
  C 261.78 276.84 310.93 254.43 362.77 256.75
  C 402.38 258.53 440.02 276.02 467.41 304.33
  Q 467.89 304.82 468.23 305.60
  Z"
/>
<path fill="#19242e" d="
  M 677.82 423.92
  A 0.73 0.72 -0.0 0 1 678.55 423.20
  L 759.10 423.20
  A 0.89 0.88 87.5 0 1 759.98 424.01
  C 762.16 449.58 756.47 475.75 737.74 494.22
  Q 717.90 513.76 690.00 516.59
  C 675.78 518.03 661.11 516.89 647.61 512.19
  C 629.41 505.86 613.66 493.53 603.32 477.31
  Q 587.24 452.09 590.17 420.12
  C 592.64 393.11 607.89 368.66 630.79 354.30
  C 669.26 330.17 720.97 339.04 747.80 376.17
  A 1.25 1.24 -35.1 0 1 747.49 377.92
  L 722.96 394.75
  A 0.94 0.93 54.2 0 1 721.69 394.54
  Q 709.96 378.88 690.55 374.73
  C 659.12 368.01 627.09 388.55 623.18 421.21
  C 620.63 442.55 627.33 462.10 644.61 474.85
  Q 657.16 484.11 673.98 485.50
  Q 698.00 487.49 715.18 472.73
  C 721.29 467.49 725.38 460.80 727.23 453.20
  A 1.08 1.08 0.0 0 0 726.18 451.87
  L 678.74 451.87
  A 0.92 0.92 0.0 0 1 677.82 450.95
  L 677.82 423.92
  Z"
/>
<ellipse fill="#19242e" cx="0.00" cy="0.00" transform="translate(1137.21,362.88) rotate(-0.5)" rx="18.20" ry="17.47"/>
<path fill="#0868ff" d="
  M 1323.68 513.04
  L 1323.68 352.02
  A 1.17 1.16 88.2 0 1 1324.77 350.85
  Q 1327.41 350.68 1328.02 350.69
  Q 1335.61 350.73 1380.77 350.58
  Q 1390.53 350.55 1397.79 351.98
  C 1414.52 355.28 1428.39 365.41 1435.51 380.73
  C 1443.40 397.73 1442.35 420.19 1431.59 435.91
  C 1421.59 450.50 1405.58 457.72 1387.98 457.85
  Q 1372.30 457.96 1355.02 457.87
  A 1.22 1.22 0.0 0 0 1353.80 459.09
  L 1353.80 512.57
  A 1.23 1.22 0.0 0 1 1352.57 513.79
  L 1324.43 513.79
  A 0.75 0.75 0.0 0 1 1323.68 513.04
  Z
  M 1353.84 379.35
  L 1353.84 429.21
  A 1.28 1.28 0.0 0 0 1355.12 430.49
  L 1385.68 430.49
  A 24.88 24.87 0.0 0 0 1410.56 405.62
  L 1410.56 402.94
  A 24.88 24.87 -0.0 0 0 1385.68 378.07
  L 1355.12 378.07
  A 1.28 1.28 0.0 0 0 1353.84 379.35
  Z"
/>
<path fill="#0868ff" d="
  M 436.36 551.81
  A 0.26 0.26 0.0 0 1 436.05 551.55
  L 436.05 424.92
  A 1.65 1.64 -90.0 0 0 434.41 423.27
  L 379.79 423.27
  A 1.13 1.12 90.0 0 0 378.67 424.40
  L 378.67 440.78
  A 1.80 1.80 0.0 0 0 380.47 442.58
  L 417.24 442.58
  A 1.14 1.14 0.0 0 1 418.38 443.72
  L 418.38 451.80
  A 3.18 3.12 66.7 0 1 417.55 453.94
  Q 401.31 471.54 379.69 476.99
  C 353.28 483.65 324.53 475.00 309.35 451.77
  C 286.05 416.07 306.59 369.64 348.12 361.14
  C 365.38 357.61 384.44 363.33 397.61 374.44
  A 3.43 3.38 -24.5 0 0 399.82 375.25
  L 495.35 375.25
  A 0.95 0.94 82.3 0 1 496.26 375.95
  Q 496.61 377.18 496.61 379.75
  Q 496.66 449.86 496.57 458.50
  C 496.42 473.70 493.85 487.47 486.38 501.39
  C 475.22 522.19 457.79 538.73 437.94 551.19
  Q 437.21 551.65 436.36 551.81
  Z"
/>
<path fill="#19242e" d="
  M 1071.50 363.28
  A 0.52 0.52 0.0 0 1 1072.12 363.79
  L 1072.12 395.30
  A 1.84 1.84 0.0 0 0 1073.96 397.14
  L 1098.46 397.14
  A 1.11 1.10 0.0 0 1 1099.57 398.24
  L 1099.57 423.06
  A 1.19 1.19 0.0 0 1 1098.38 424.25
  L 1073.44 424.25
  A 1.30 1.30 0.0 0 0 1072.14 425.55
  Q 1072.21 442.89 1072.12 474.81
  C 1072.10 482.29 1074.93 487.55 1082.99 488.22
  Q 1090.86 488.88 1098.55 486.66
  A 0.80 0.80 0.0 0 1 1099.57 487.43
  L 1099.57 511.95
  A 1.44 1.44 0.0 0 1 1098.44 513.36
  C 1084.31 516.59 1065.36 517.52 1053.26 508.84
  C 1044.14 502.30 1042.01 490.82 1041.98 479.98
  Q 1041.91 452.73 1042.00 425.39
  A 1.22 1.21 0.2 0 0 1040.78 424.17
  L 1021.27 424.17
  A 1.03 1.03 0.0 0 1 1020.24 423.14
  L 1020.24 397.81
  A 0.71 0.70 -0.0 0 1 1020.95 397.11
  L 1040.84 397.11
  A 1.19 1.18 0.0 0 0 1042.03 395.93
  L 1042.03 369.94
  A 1.41 1.41 0.0 0 1 1043.17 368.56
  L 1071.50 363.28
  Z"
/>
<path fill="#19242e" d="
  M 868.83 478.15
  A 0.63 0.61 -52.2 0 1 869.55 478.05
  L 892.22 490.31
  A 1.05 1.05 0.0 0 1 892.57 491.85
  C 876.86 513.48 852.33 519.38 826.76 514.99
  C 807.05 511.60 789.56 498.67 781.80 480.18
  Q 775.31 464.72 777.83 446.58
  C 781.34 421.34 800.33 402.03 824.83 396.59
  C 857.50 389.33 889.96 406.86 897.54 440.42
  Q 900.48 453.42 898.77 466.19
  A 1.05 1.05 0.0 0 1 897.73 467.10
  L 809.77 467.10
  A 0.96 0.95 84.5 0 0 808.84 468.24
  Q 810.12 474.68 814.82 479.70
  C 827.12 492.86 849.33 494.44 863.54 483.47
  C 865.29 482.12 867.16 479.72 868.83 478.15
  Z
  M 839.01 444.94
  Q 862.56 444.88 868.55 444.82
  A 1.10 1.10 0.0 0 0 869.60 443.44
  C 865.76 429.00 853.94 420.66 838.96 420.70
  C 823.97 420.73 812.20 429.13 808.43 443.58
  A 1.10 1.10 0.0 0 0 809.48 444.96
  Q 815.47 444.99 839.01 444.94
  Z"
/>
<path fill="#19242e" d="
  M 938.05 476.91
  Q 943.12 487.86 955.28 490.21
  C 962.47 491.60 978.15 491.69 980.79 482.44
  C 983.33 473.56 973.62 470.66 967.18 469.08
  Q 960.64 467.47 948.48 464.27
  C 942.08 462.59 934.55 460.04 929.49 456.49
  C 917.88 448.36 914.49 434.07 918.58 420.93
  C 926.32 396.04 958.65 391.27 980.15 397.58
  C 991.24 400.83 1001.24 408.11 1006.25 418.73
  A 1.27 1.27 0.0 0 1 1005.65 420.41
  L 983.22 431.13
  A 1.05 1.04 62.5 0 1 981.86 430.70
  Q 977.52 423.01 969.92 420.84
  C 963.84 419.10 956.49 419.09 950.75 422.44
  C 944.21 426.27 944.66 434.19 951.43 437.63
  Q 954.94 439.41 961.49 441.03
  Q 977.30 444.92 984.56 447.19
  C 1000.77 452.24 1010.82 463.24 1010.14 481.28
  C 1009.39 500.90 993.06 512.53 975.12 515.15
  C 952.18 518.50 923.19 513.94 913.05 489.43
  A 1.40 1.40 0.0 0 1 913.74 487.64
  L 936.99 476.53
  A 0.79 0.79 0.0 0 1 938.05 476.91
  Z"
/>
<path fill="#19242e" d="
  M 1172.1241 453.5324
  A 62.06 60.73 -178.1 0 1 1236.1635 394.8934
  A 62.06 60.73 -178.1 0 1 1296.1759 457.6476
  A 62.06 60.73 -178.1 0 1 1232.1365 516.2866
  A 62.06 60.73 -178.1 0 1 1172.1241 453.5324
  Z
  M 1234.2442 422.8502
  A 32.72 32.26 -89.8 0 0 1201.8702 455.4574
  A 32.72 32.26 -89.8 0 0 1234.0158 488.2898
  A 32.72 32.26 -89.8 0 0 1266.3898 455.6826
  A 32.72 32.26 -89.8 0 0 1234.2442 422.8502
  Z"
/>
<rect fill="#19242e" x="1121.97" y="397.14" width="30.42" height="116.76" rx="1.18"/>
<path fill="#0868ff" d="
  M 1585.39 398.53
  C 1618.71 398.36 1642.78 424.29 1642.94 457.06
  C 1643.10 489.83 1619.29 515.99 1585.97 516.15
  C 1552.65 516.31 1528.59 490.39 1528.43 457.62
  C 1528.26 424.85 1552.08 398.69 1585.39 398.53
  Z
  M 1585.0823 424.1761
  A 33.22 30.16 -91.1 0 0 1555.5656 457.9690
  A 33.22 30.16 -91.1 0 0 1586.3577 490.6039
  A 33.22 30.16 -91.1 0 0 1615.8744 456.8110
  A 33.22 30.16 -91.1 0 0 1585.0823 424.1761
  Z"
/>
<path fill="#0868ff" d="
  M 1486.37 419.33
  A 0.61 0.60 35.0 0 0 1487.32 419.17
  Q 1497.15 400.09 1519.60 399.10
  A 1.45 1.44 88.7 0 1 1521.11 400.55
  L 1521.11 427.37
  A 0.59 0.59 0.0 0 1 1520.49 427.96
  C 1508.68 427.34 1498.17 430.82 1491.79 440.57
  C 1487.43 447.26 1486.54 454.63 1486.55 463.78
  Q 1486.57 497.45 1486.40 512.70
  A 1.06 1.05 -89.4 0 1 1485.35 513.74
  L 1458.36 513.74
  A 0.67 0.67 0.0 0 1 1457.69 513.07
  L 1457.69 402.56
  A 1.63 1.62 90.0 0 1 1459.31 400.93
  L 1484.69 400.93
  A 1.28 1.27 89.5 0 1 1485.96 402.19
  Q 1486.04 412.33 1485.92 418.06
  Q 1485.90 418.90 1486.37 419.33
  Z"
/>
</svg>
