<?xml version="1.0" encoding="UTF-8" standalone="no"?>
<!DOCTYPE svg PUBLIC "-//W3C//DTD SVG 1.1//EN" "http://www.w3.org/Graphics/SVG/1.1/DTD/svg11.dtd">
<svg xmlns="http://www.w3.org/2000/svg" version="1.1" viewBox="0.00 0.00 1774.00 887.00">
<g stroke-width="2.00" fill="none" stroke-linecap="butt">
<path stroke="#0579ff" vector-effect="non-scaling-stroke" d="
  M 307.57 307.63
  Q 294.17 292.64 278.42 284.83
  Q 266.36 278.86 254.24 272.98
  Q 240.64 266.39 226.49 253.68"
/>
<path stroke="#0579ff" vector-effect="non-scaling-stroke" d="
  M 386.29 434.15
  L 379.48 433.82
  A 1.94 1.75 -27.4 0 1 378.72 433.62
  Q 360.10 424.25 344.41 409.61
  C 334.84 400.67 322.62 387.90 311.74 379.17
  Q 299.88 369.64 286.54 361.74"
/>
</g>
<path fill="#0483ff" d="
  M 307.57 307.63
  Q 294.17 292.64 278.42 284.83
  Q 266.36 278.86 254.24 272.98
  Q 240.64 266.39 226.49 253.68
  Q 228.55 252.67 230.73 251.75
  Q 259.14 239.65 289.42 237.12
  C 336.51 233.18 382.20 247.79 418.91 277.65
  Q 428.77 285.67 436.85 294.91
  A 0.77 0.77 0.0 0 1 436.80 295.98
  L 385.19 345.69
  A 0.57 0.57 0.0 0 1 384.39 345.67
  Q 377.71 338.50 377.68 338.46
  C 366.35 326.53 351.02 317.68 335.57 312.40
  Q 322.94 308.08 307.57 307.63
  Z"
/>
<path fill="#056fff" d="
  M 226.49 253.68
  Q 240.64 266.39 254.24 272.98
  Q 266.36 278.86 278.42 284.83
  Q 294.17 292.64 307.57 307.63
  Q 300.53 306.83 287.91 308.98
  C 269.39 312.13 254.00 317.83 239.90 327.77
  Q 232.92 332.69 231.33 334.05
  Q 203.83 357.37 193.99 389.75
  Q 183.97 422.70 193.15 455.40
  Q 199.61 478.41 215.64 497.14
  Q 245.99 532.59 292.38 538.54
  Q 331.15 543.51 365.44 525.38
  Q 371.72 522.06 377.43 517.64
  A 0.58 0.58 0.0 0 1 378.37 518.10
  L 378.37 595.09
  A 1.11 1.10 80.3 0 1 377.64 596.13
  Q 377.10 596.33 367.55 599.77
  Q 339.58 609.87 310.77 611.06
  Q 281.97 612.24 253.27 604.48
  Q 206.20 591.74 170.48 556.07
  Q 161.37 546.97 153.36 536.41
  Q 121.95 494.99 116.47 444.41
  Q 114.30 424.48 117.14 400.30
  Q 117.72 395.28 119.20 388.79
  Q 121.47 378.75 121.86 377.38
  Q 128.72 353.19 139.42 334.41
  Q 156.53 304.39 181.01 282.77
  Q 200.91 265.21 226.49 253.68
  Z"
/>
<path fill="#ffffff" d="
  M 645.99 427.28
  A 1.12 1.11 -89.2 0 1 647.10 426.19
  L 735.56 426.19
  A 2.13 2.13 0.0 0 1 737.67 428.01
  Q 737.79 428.85 737.86 430.62
  Q 738.29 442.42 736.73 455.15
  C 734.51 473.24 726.96 489.81 715.61 503.58
  Q 713.88 505.68 707.19 511.39
  C 694.46 522.25 677.82 528.66 661.23 530.70
  Q 628.93 534.67 600.23 520.48
  Q 586.72 513.79 575.09 501.67
  Q 562.94 489.00 555.04 469.46
  C 553.40 465.42 551.39 457.15 550.46 453.57
  Q 548.38 445.59 548.90 434.67
  Q 549.63 419.47 553.04 407.54
  Q 560.88 380.11 581.75 361.24
  C 589.77 353.99 598.55 348.05 609.05 344.11
  Q 618.35 340.62 630.16 338.12
  Q 641.09 335.82 651.98 336.60
  Q 668.82 337.82 684.52 344.03
  C 695.19 348.23 705.35 355.55 713.11 363.11
  Q 718.86 368.73 723.88 377.04
  A 0.84 0.84 0.0 0 1 723.63 378.17
  L 696.02 396.59
  A 1.57 1.56 52.2 0 1 693.98 396.33
  Q 690.03 391.95 686.68 388.83
  Q 674.55 377.52 657.14 374.94
  Q 633.49 371.44 613.96 384.15
  Q 603.57 390.91 595.79 403.10
  C 590.35 411.62 587.92 421.38 587.72 431.00
  C 587.53 439.64 587.93 447.73 590.70 455.78
  Q 596.88 473.78 612.02 484.41
  C 622.51 491.78 634.79 494.54 647.55 494.81
  Q 668.00 495.25 683.94 483.34
  C 691.35 477.80 696.86 470.07 699.09 461.79
  C 699.89 458.86 696.60 459.01 694.82 459.03
  Q 671.28 459.24 654.50 459.06
  Q 651.20 459.03 648.15 458.60
  A 2.11 2.10 -2.6 0 1 646.39 457.00
  Q 645.81 454.51 645.77 451.03
  Q 645.64 438.96 645.99 427.28
  Z"
/>
<ellipse fill="#ffffff" cx="0.00" cy="0.00" transform="translate(1136.82,361.39) rotate(-13.0)" rx="20.89" ry="20.32"/>
<path fill="#056fff" d="
  M 1339.15 355.41
  Q 1365.77 355.23 1405.27 355.69
  C 1424.12 355.90 1441.93 365.14 1452.11 381.16
  C 1463.18 398.59 1463.82 419.87 1455.13 438.55
  C 1448.65 452.46 1436.23 461.97 1421.59 466.27
  Q 1415.37 468.09 1405.90 468.24
  Q 1387.57 468.52 1371.63 468.42
  A 0.54 0.54 0.0 0 0 1371.08 468.96
  L 1371.08 526.22
  A 0.77 0.77 0.0 0 1 1370.31 526.99
  L 1339.16 526.99
  A 0.76 0.76 0.0 0 1 1338.40 526.23
  L 1338.40 356.17
  A 0.76 0.76 0.0 0 1 1339.15 355.41
  Z
  M 1370.99 385.95
  L 1370.99 438.09
  A 0.86 0.86 0.0 0 0 1371.85 438.95
  L 1403.23 438.95
  A 25.56 25.53 -0.0 0 0 1428.79 413.42
  L 1428.79 410.62
  A 25.56 25.53 0.0 0 0 1403.23 385.09
  L 1371.85 385.09
  A 0.86 0.86 0.0 0 0 1370.99 385.95
  Z"
/>
<path fill="#0483ff" d="
  M 386.29 434.15
  L 379.48 433.82
  A 1.94 1.75 -27.4 0 1 378.72 433.62
  Q 360.10 424.25 344.41 409.61
  C 334.84 400.67 322.62 387.90 311.74 379.17
  Q 299.88 369.64 286.54 361.74
  C 310.43 353.77 335.50 359.79 354.37 375.81
  A 1.00 1.00 0.0 0 0 355.02 376.05
  L 470.45 376.05
  A 0.35 0.34 -0.0 0 1 470.80 376.39
  Q 470.95 420.80 470.81 454.65
  C 470.78 463.90 471.31 475.41 470.39 485.48
  Q 470.25 486.97 468.57 496.33
  Q 467.47 502.48 465.86 506.98
  Q 458.22 528.33 446.84 542.88
  Q 426.73 568.59 398.54 585.11
  A 0.51 0.51 0.0 0 1 397.77 584.67
  L 397.77 434.82
  A 0.70 0.70 0.0 0 0 397.07 434.12
  L 386.29 434.15
  Z"
/>
<path fill="#ffffff" d="
  M 1065.93 361.45
  A 1.49 1.49 0.0 0 1 1067.73 362.91
  L 1067.73 396.46
  A 1.67 1.66 -0.0 0 0 1069.40 398.12
  L 1096.00 398.12
  A 1.74 1.73 90.0 0 1 1097.73 399.86
  L 1097.73 429.21
  A 0.45 0.44 82.3 0 1 1097.41 429.64
  Q 1095.83 430.08 1094.50 430.07
  Q 1073.67 429.88 1069.73 429.62
  Q 1067.34 429.47 1067.43 431.73
  Q 1067.68 437.57 1067.68 440.50
  Q 1067.66 485.26 1067.70 485.75
  Q 1068.23 493.39 1073.69 496.37
  C 1079.28 499.43 1088.76 498.07 1095.87 496.78
  A 1.48 1.48 0.0 0 1 1097.61 498.24
  L 1097.61 524.26
  A 2.82 2.82 0.0 0 1 1095.60 526.96
  C 1092.28 527.95 1087.92 528.38 1084.09 528.93
  C 1072.47 530.59 1057.31 529.50 1047.71 523.16
  Q 1033.76 513.93 1033.30 495.68
  Q 1032.61 467.69 1033.17 432.75
  Q 1033.21 429.72 1030.52 429.78
  Q 1029.41 429.80 1010.63 429.94
  A 1.22 1.21 -86.9 0 1 1009.42 428.58
  Q 1011.02 414.71 1009.32 399.57
  A 1.42 1.42 0.0 0 1 1010.36 398.04
  Q 1010.94 397.88 1012.26 397.92
  Q 1018.96 398.15 1030.96 398.34
  Q 1033.13 398.38 1033.14 395.95
  Q 1033.19 382.27 1033.18 369.24
  Q 1033.17 366.13 1036.07 366.08
  Q 1041.09 366.00 1045.51 365.27
  Q 1056.93 363.37 1065.93 361.45
  Z"
/>
<path fill="#056fff" d="
  M 286.54 361.74
  Q 299.88 369.64 311.74 379.17
  C 322.62 387.90 334.84 400.67 344.41 409.61
  Q 360.10 424.25 378.72 433.62
  A 1.94 1.75 -27.4 0 0 379.48 433.82
  L 386.29 434.15
  L 332.27 434.16
  A 0.59 0.59 0.0 0 0 331.68 434.75
  L 331.68 454.09
  A 1.02 1.01 90.0 0 0 332.69 455.11
  L 377.76 455.11
  A 0.45 0.45 0.0 0 1 378.21 455.56
  L 378.21 468.51
  A 1.07 1.07 0.0 0 1 377.80 469.35
  Q 374.80 471.70 371.06 475.29
  C 365.37 480.74 358.88 484.91 353.15 488.66
  Q 351.40 489.80 345.60 492.38
  C 331.21 498.78 316.47 501.16 300.26 498.86
  C 259.04 493.01 229.92 454.45 239.50 413.01
  Q 243.84 394.24 257.59 379.86
  Q 269.73 367.16 286.54 361.74
  Z"
/>
<path fill="#ffffff" d="
  M 1173.3161 459.1494
  A 70.02 68.62 -176.7 0 1 1247.1700 394.6738
  A 70.02 68.62 -176.7 0 1 1313.1239 467.2106
  A 70.02 68.62 -176.7 0 1 1239.2700 531.6862
  A 70.02 68.62 -176.7 0 1 1173.3161 459.1494
  Z
  M 1244.9495 428.6106
  A 34.57 34.42 -86.9 0 0 1208.7104 461.2686
  A 34.57 34.42 -86.9 0 0 1241.2105 497.6494
  A 34.57 34.42 -86.9 0 0 1277.4496 464.9914
  A 34.57 34.42 -86.9 0 0 1244.9495 428.6106
  Z"
/>
<path fill="#ffffff" d="
  M 788.88 477.74
  C 796.19 498.96 820.68 504.57 839.88 496.48
  C 843.24 495.06 846.36 492.84 848.48 489.99
  Q 850.59 487.14 851.60 486.38
  A 0.95 0.94 43.1 0 1 852.69 486.35
  Q 864.03 493.88 878.13 500.64
  C 880.33 501.69 879.89 503.15 878.44 504.75
  Q 869.61 514.45 867.33 516.33
  Q 858.93 523.24 848.92 526.65
  C 842.77 528.75 835.40 531.02 828.18 530.99
  Q 817.85 530.95 817.31 530.91
  C 800.18 529.69 783.03 523.39 771.13 510.74
  Q 758.42 497.23 754.10 479.72
  C 749.96 462.91 751.70 442.90 761.39 427.86
  Q 767.25 418.74 772.92 413.44
  Q 790.87 396.67 815.93 394.88
  Q 844.15 392.86 864.74 411.99
  C 878.18 424.48 884.66 441.28 885.07 459.01
  Q 885.21 465.11 885.03 474.52
  Q 884.98 477.10 882.25 476.88
  Q 872.15 476.08 863.25 476.30
  Q 854.24 476.51 850.59 476.37
  C 844.80 476.15 837.98 476.90 833.25 476.70
  C 819.44 476.12 805.04 476.38 790.18 475.97
  A 1.34 1.34 0.0 0 0 788.88 477.74
  Z
  M 788.77 451.30
  Q 790.26 451.82 792.01 451.55
  C 796.66 450.82 801.30 449.92 806.25 450.30
  Q 810.76 450.64 812.75 450.58
  Q 827.76 450.15 844.50 450.59
  Q 847.78 450.68 850.16 450.21
  A 1.24 1.24 0.0 0 0 851.13 448.71
  Q 850.19 444.66 848.15 441.05
  C 839.80 426.24 824.76 422.63 809.36 427.39
  C 799.53 430.43 790.14 439.31 788.06 450.08
  A 1.07 1.07 0.0 0 0 788.77 451.30
  Z"
/>
<path fill="#ffffff" d="
  M 922.42 484.74
  A 1.33 1.33 0.0 0 1 923.99 485.51
  Q 928.85 497.04 940.63 499.57
  C 949.41 501.47 964.13 502.30 968.16 492.39
  C 972.20 482.47 955.36 479.33 948.93 477.80
  Q 937.77 475.15 925.27 470.77
  Q 914.11 466.85 906.68 458.65
  Q 903.58 455.22 901.50 449.01
  C 893.31 424.52 911.44 401.19 935.29 396.27
  Q 945.48 394.17 955.64 394.99
  C 971.27 396.26 986.97 404.39 995.83 417.66
  Q 997.69 420.45 998.43 422.92
  A 0.97 0.95 -30.5 0 1 998.17 423.89
  Q 996.22 425.70 995.32 426.10
  Q 984.88 430.76 975.39 436.38
  Q 973.49 437.50 971.83 437.81
  A 1.05 1.05 0.0 0 1 970.77 437.35
  C 969.08 434.75 966.43 430.33 962.30 428.17
  C 956.23 424.98 950.60 423.34 943.71 425.13
  C 935.45 427.28 928.20 435.45 938.46 442.07
  Q 941.65 444.13 948.15 445.83
  Q 960.73 449.11 972.01 452.52
  Q 980.32 455.04 987.96 460.05
  C 1001.41 468.87 1005.13 486.11 1000.84 501.03
  C 996.59 515.82 984.10 524.73 969.80 528.53
  C 956.92 531.95 943.70 532.90 931.27 529.24
  C 920.23 526.00 908.18 521.37 901.37 511.34
  Q 899.62 508.77 897.00 505.56
  C 894.59 502.61 893.15 499.25 897.44 497.17
  Q 904.32 493.82 921.37 485.11
  Q 921.70 484.94 922.42 484.74
  Z"
/>
<path fill="#ffffff" d="
  M 1119.16 527.76
  A 0.70 0.70 0.0 0 1 1118.46 527.08
  C 1117.93 499.63 1118.26 478.98 1118.09 453.32
  Q 1117.95 431.81 1118.49 410.26
  Q 1118.70 402.20 1125.14 399.20
  Q 1127.39 398.16 1134.50 397.99
  Q 1138.92 397.89 1149.44 397.84
  Q 1151.17 397.84 1152.94 398.39
  A 1.05 1.04 -0.4 0 1 1153.62 399.05
  Q 1154.21 400.75 1154.20 403.25
  Q 1154.17 425.15 1153.89 495.51
  C 1153.85 504.53 1154.27 516.94 1154.17 526.43
  A 1.35 1.34 0.2 0 1 1152.82 527.76
  L 1119.16 527.76
  Z"
/>
<path fill="#056fff" d="
  M 1675.10 463.15
  Q 1675.92 474.39 1673.28 484.73
  C 1663.98 521.18 1624.38 538.91 1590.85 525.48
  C 1568.33 516.45 1554.55 496.04 1552.80 472.07
  C 1551.05 448.09 1561.72 425.90 1582.70 413.70
  C 1613.92 395.55 1655.68 407.35 1670.17 442.06
  Q 1674.28 451.91 1675.10 463.15
  Z
  M 1613.7005 433.2333
  A 34.34 31.72 -90.8 0 0 1582.4631 468.0129
  A 34.34 31.72 -90.8 0 0 1614.6595 501.9067
  A 34.34 31.72 -90.8 0 0 1645.8969 467.1271
  A 34.34 31.72 -90.8 0 0 1613.7005 433.2333
  Z"
/>
<path fill="#056fff" d="
  M 1508.99 427.47
  Q 1513.24 418.33 1521.89 412.71
  Q 1532.71 405.69 1545.09 406.06
  A 0.73 0.73 0.0 0 1 1545.80 406.79
  L 1545.80 436.43
  A 0.70 0.70 0.0 0 1 1545.07 437.13
  C 1529.62 436.53 1517.49 441.39 1511.51 455.74
  C 1509.98 459.40 1508.83 465.93 1508.80 471.18
  Q 1508.65 501.43 1508.68 526.08
  A 0.98 0.98 0.0 0 1 1507.70 527.06
  L 1478.25 527.06
  A 0.85 0.85 0.0 0 1 1477.40 526.21
  L 1477.40 408.16
  A 0.40 0.39 -0.0 0 1 1477.80 407.77
  L 1507.53 407.77
  A 0.87 0.87 0.0 0 1 1508.40 408.64
  L 1508.40 427.33
  A 0.31 0.31 0.0 0 0 1508.99 427.47
  Z"
/>
</svg>
